<?xml version="1.0" encoding="utf-8"?>
<!-- Generator: Adobe Illustrator 26.0.3, SVG Export Plug-In . SVG Version: 6.00 Build 0)  -->
<svg version="1.0" id="Layer_1" xmlns="http://www.w3.org/2000/svg" xmlns:xlink="http://www.w3.org/1999/xlink" x="0px" y="0px"
	 viewBox="0 0 665.3 492" style="enable-background:new 0 0 665.3 492;" xml:space="preserve">
<style type="text/css">
	.st0{fill:#97CE26;}
	.st1{fill:#020202;}
	.st2{fill:#01AAFE;}
	.st3{fill:#010101;}
	.st4{fill:#FE6163;}
	.st5{fill:#A169F6;}
	.st6{fill:#FCFCFC;}
</style>
<path class="st0" d="M225.2,278.2c0,20.9-16.9,37.8-37.7,37.8c-20.9,0-37.8-16.9-37.8-37.7c0-20.8,16.8-37.8,37.7-37.8
	C208.2,240.5,225.1,257.3,225.2,278.2z"/>
<path class="st1" d="M333.3,295.6c-2.7,0-5.3-0.1-8,0c-1.1,0.2-2.2-0.5-2.4-1.6c-1.8-5.3-3.8-10.5-5.7-15.8c-0.2-1-1.1-1.6-2.1-1.5
	c-10.2,0.1-20.5,0.1-30.7,0c-1.3,0-1.8,0.5-2.2,1.6c-1.9,5.3-3.9,10.5-5.8,15.8c-0.2,1-1.1,1.6-2.1,1.5c-5.5-0.1-11-0.1-16.4,0
	c-1.8,0-1.5-0.6-1.1-1.8c6-16.4,12.1-32.8,18.1-49.2c5.6-15.4,11.3-30.7,16.9-46c0.5-1.5,1.1-2.1,2.8-2c3.5,0.1,7,0.1,10.5,0
	c1-0.2,2,0.5,2.3,1.5c11.7,31.9,23.4,63.8,35.2,95.8c0.6,1.6,0,1.7-1.3,1.7C338.6,295.5,336,295.6,333.3,295.6z M299.7,230.6
	c-3.9,10.6-7.6,20.7-11.4,31h22.7C307.3,251.3,303.6,241.2,299.7,230.6L299.7,230.6z"/>
<path class="st2" d="M116.4,238.1c-17.2,0-31.1-13.9-31.1-31c0-17.2,13.9-31.1,31-31.1l0,0c16.9-0.1,31,13.9,31.1,31.1
	C147.6,224,133.5,238.1,116.4,238.1z"/>
<path class="st3" d="M543.8,297c-20.1,0-36.1-15.8-36.1-35.6c0-19.4,16.3-35.2,36.5-35.1c19.4,0.1,35.7,15.2,35.9,35.3
	C580.2,281.2,563.8,297,543.8,297z M525.3,261.8c-0.2,10.3,7.9,18.8,18.1,19c10.3,0.2,18.8-7.9,19-18.1c0.2-10.3-7.9-18.8-18.1-19
	c-0.2,0-0.4,0-0.5,0C533.7,243.6,525.4,251.7,525.3,261.8L525.3,261.8z"/>
<path class="st1" d="M461,260.3c0-5.8-0.1-10.6,0-15.4c0-1.5-0.3-2.1-1.9-2c-3.6,0.1-7.2,0-10.7,0.1c-1.6,0.1-2-0.5-1.9-2
	c0.1-3.7,0.1-7.4,0-11.1c0-1.4,0.3-1.9,1.8-1.9c3.7,0.1,7.4,0,11.1,0.1c1.3,0,1.7-0.3,1.6-1.6c-0.1-4.9,0.1-9.8-0.1-14.7
	c-0.1-2,0.6-2.4,2.5-2.4c4.6,0.1,9.3,0.1,13.9,0c1.7,0,2.3,0.3,2.2,2.1c-0.1,5,0,10-0.1,14.9c0,1.3,0.3,1.6,1.6,1.6
	c6.2-0.1,12.5,0,18.7-0.1c1.5,0,1.9,0.4,1.9,1.9c-0.1,3.7-0.1,7.4,0,11.1c0.1,1.8-0.6,2.1-2.2,2c-6-0.1-12.1,0-18.1-0.1
	c-1.5,0-2,0.3-2,1.9c0.1,8.4,0,16.8,0,25.2c0,6.3,3.5,10,9.8,10.5c2.9,0.3,5.9,0.1,8.8-0.7c1-0.3,1.4,0,1.5,1c0.6,4,1.2,8,1.8,12
	c0.1,0.8,0.1,1.4-0.9,1.7c-9.3,3.1-18.6,3.4-27.7-0.7c-7.4-3.3-10.6-9.8-11.5-17.6C460.6,270.8,461.1,265.1,461,260.3z"/>
<path class="st1" d="M337.6,228c5.7,0,11.4,0,17.2,0c1.4,0,1.3,1.1,1.6,1.8c4,10.8,8,21.5,11.9,32.3l5.5,15c2.1-5.6,4-10.6,5.8-15.7
	c3.9-10.5,7.7-21,11.5-31.5c0.3-1.3,1.5-2.2,2.8-1.9c5.3,0.1,10.7,0.1,16.1,0.1c-0.4,1.8-1,3.5-1.7,5.2c-7.3,20.1-14.7,40.2-22,60.2
	c-0.6,1.6-1.3,2.2-3.1,2.2c-6.5-0.1-12.9-0.1-19.4,0c-1.2,0-1.9-0.2-2.3-1.5c-7.9-21.6-15.8-43.2-23.7-64.8
	C337.6,228.9,337.5,228.4,337.6,228z"/>
<path class="st4" d="M211.7,207c0,13.4-10.8,24.3-24.2,24.4c-13.4,0-24.3-10.8-24.4-24.2c0-13.4,10.8-24.3,24.2-24.4
	c0,0,0.1,0,0.1,0C200.9,182.8,211.7,193.6,211.7,207z"/>
<path class="st1" d="M418,261.7c0-10.5,0.1-21,0-31.6c0-2,0.6-2.3,2.3-2.2c4.9,0.1,9.8,0.1,14.7,0c1.2,0,1.5,0.3,1.5,1.5
	c0,21.5,0,43.1,0,64.6c0,1.2-0.4,1.5-1.5,1.5c-5-0.1-10.1-0.1-15.2,0c-1.5,0-1.9-0.4-1.8-1.9C418,283.1,418,272.4,418,261.7z"/>
<path class="st5" d="M116.5,260.7c9.7-0.2,17.4,8,17.4,17.5c0,9.7-7.8,17.6-17.6,17.6s-17.6-7.8-17.6-17.6c0-9.7,7.8-17.6,17.6-17.6
	C116.4,260.7,116.5,260.7,116.5,260.7z"/>
<path class="st1" d="M439.1,208.4c0.1,6.5-5.2,11.9-11.8,12s-11.9-5.2-12-11.8s5.2-11.9,11.8-12c0.1,0,0.1,0,0.2,0
	C433.8,196.8,439,202,439.1,208.4z"/>
<path class="st6" d="M299.7,230.6c3.9,10.6,7.6,20.7,11.4,31h-22.7C292.1,251.4,295.8,241.2,299.7,230.6z"/>
</svg>
