<?xml version="1.0" encoding="UTF-8"?>
<svg id="_Слой_1" data-name="Слой 1" xmlns="http://www.w3.org/2000/svg" version="1.1" viewBox="0 0 612 792">
  <defs>
    <style>
      .cls-1 {
        fill: #000;
      }

      .cls-1, .cls-2 {
        stroke-width: 0px;
      }

      .cls-2 {
        fill: #f60;
      }
    </style>
  </defs>
  <path class="cls-1" d="M500.47,348.87c-13.18,0-26.39-.06-39.61.03-5.67.04-11.35.28-17.01.66-2.93.2-3.84-.87-3.98-3.55-.55-10.35,2.21-19.71,8.31-28.28,2.1-2.94,4.09-3.49,7.46-1.86,13.07,6.32,26.25,12.43,39.42,18.56,1.5.7,3.16,1.07,4.74,1.59.18-.35.36-.7.54-1.05-14.45-8.32-28.91-16.65-43.65-25.14,6.59-6.59,14-11.65,22.43-15.18,1.92-.8,4.62-.27,6.87.12,7.44,1.28,11.46-.58,15.22-6.89.81-1.36,2.55-2.52,4.14-3.08,13.54-4.79,27.72-4.49,41.61-3.13,13.55,1.33,26.92,4.5,40.3,7.19,2.18.44,4.56,2.16,5.88,3.96,19.31,26.24,23.73,54.95,10.57,84.31-12.58,28.06-35.18,46.29-67.57,50.88-36.65,5.19-66.23-6.61-88.23-35.5-3.16-4.15-5.16-8.55-5.4-13.74-.29-6.19-.78-12.38-1.29-18.56-.24-2.98.82-4.17,4.13-4.53,18.15-1.99,36.27-4.25,54.4-6.43.27-.03.51-.28.71-.39ZM577.34,330.57c-7.33,4.71-14.25,9.42-21.46,13.66-3.24,1.91-5.37,3.92-6.58,7.57-3.85,11.62-12.17,18.77-24.81,20.94-2.88.49-5.83.58-8.83.87,2.3,6.59,12.53,20.2,18.06,23.75,1.06.68,2.93.68,4.28.38,29.75-6.67,48.69-38.99,39.32-67.17ZM502.65,290.9c4.96,10.95,9.8,21.64,14.65,32.34.27-.1.54-.2.8-.3-.64-2.4-1.29-4.79-2.34-8.69,6.44,1.34,11.91,1.91,16.95,3.66,9.16,3.17,14.25,10.37,17.39,19.49,8.93-5.42,17.13-10.4,25.19-15.28-7.79-25.81-47.11-42.76-72.64-31.21ZM463.27,355.65c9.76,34.32,38.3,48.02,67.77,42.72-5.88-8.21-11.94-16.74-18.13-25.19-.65-.89-2-1.38-3.11-1.88-7.47-3.3-13-8.45-16.09-15.79-.98-2.33-2.31-3.41-4.91-3.07-8.37,1.07-16.75,2.11-25.52,3.21ZM465.67,322.35c-.58.3-1.16.61-1.73.91-.72,6.86-1.54,13.7-2.04,20.57-.08,1.06,1.31,3.17,2.07,3.19,8.72.23,17.44.15,25.94.15.71-3.54,1.43-6.32,1.76-9.14.11-.94-.48-2.5-1.24-2.91-8.19-4.35-16.48-8.53-24.74-12.76ZM487.16,296.19c-6.38,6.75-11.67,12.34-17.66,18.67,7.5,4.5,13.78,8.42,20.26,12.03,1.44.8,4.43,1.32,5.18.57,2.21-2.23,6-4.42,4.13-8.31-3.53-7.34-7.49-14.5-11.9-22.96ZM522.86,351.24c1.57-2.67,3.18-4.19,2.93-5.33-.27-1.23-2.39-3.02-3.5-2.9-1.22.14-2.94,2.11-3.08,3.41-.12,1.1,1.71,2.39,3.65,4.82Z"/>
  <path class="cls-1" d="M179.48,249.97c.54,6.47,2.59,12.13,6.49,16.64,14.58,16.88,29.5,33.5,44.41,50.11,1.38,1.54,3.46,2.64,5.42,3.54,6.82,3.14,10.59,1.48,12.85-5.48,3.92-12.12,7.79-24.26,11.76-36.37,3.73-11.38,2.91-15.5-5.17-24.42,14.95-7.42,22.64-9.31,33.02-8.03-.14.4-.15.94-.41,1.1-14.87,9.12-18.15,23.6-19.11,38.93-.35,5.54.36,11.17.94,16.73.18,1.74,1.48,3.36,2.27,5.04,1.96-1.07,4.01-2.03,5.85-3.27.65-.44.79-1.57,1-2.04-1.45-1.24-2.74-2.34-4.03-3.44.27-.26.55-.51.82-.77,1.46.23,2.92.46,4.38.68-.17-1.29-.33-2.58-.5-3.85,4.52.51,4.57,8.2-.18,11.7-1.83,1.35-4.01,2.26-6.69,3.74,2.63,2.35,4.86,4.34,7.28,6.49-5.54,6.19-12.01,11.94-8.85,21.4,3,8.98,11.82,11.01,19.03,14.98-4.9,6.25-11.64,8.33-19.74,5.32-8.48-3.15-16.83-6.7-24.96-10.6-4.76-2.28-9.48-4.04-14.77-3.88-17.19.52-33.5-4.57-50.22-7.07-5.73-.86-11.44-1.92-17.09-3.18-1.5-.34-3.77-1.69-3.87-2.74-.24-2.53,2.06-2.68,4.3-2.77,21.72-.86,43.43-1.82,65.14-2.76.57-.02,1.13-.16,2.71-.39-11.73-12.64-22.88-24.64-34.03-36.65-.3.22-.61.43-.91.65,7.83,10.1,15.67,20.2,24.47,31.55-10.18,0-19.08.09-27.97-.1-1.28-.03-3.02-1.08-3.73-2.16-6.57-9.96-15.31-17.6-26.7-23.41,1.98-8.22,3.97-16.51,6.3-26.17,7.13,3.48,13.44,6.57,18.91,9.24-5.18-7.12-11-15.13-16.78-23.07-.36.96-1.16,2.75-1.72,4.6-3.34,10.99-6.63,21.99-9.92,33-1.63,5.47-4.15,6.27-10.23,2.59,3.38-15.16,6.82-30.58,10.35-46.43-6.54-.42-12.6-.8-18.65-1.22-4.71-.33-9.45-.47-14.09-1.17-2.14-.33-5.03-1.28-5.98-2.84-5.15-8.46-9.97-17.15-10.28-27.38.54-.26.95-.64,1.34-.63,22.49.61,45.04.34,67.12,5.81,4.76,1.18,10.01,1.07,14.99.85,24.39-1.1,48.79-2.32,73.16-3.8,4.55-.28,6.08,1.56,6.16,5.19.13,5.89.39,11.83-.34,17.64-.25,2.02-2.95,4.62-5.12,5.37-3.61,1.25-7.69,1.57-11.58,1.66-23.79.49-47.59.8-71.38,1.19-1.68.03-3.36.19-5.42.32ZM257.96,343.95c4.76-.54,5.08-3.25,5.31-5.6.33-3.42-2.49-3.79-5.05-4.02-3.71-.34-4.32,2.71-4.05,4.82.22,1.72,2.45,3.21,3.79,4.8Z"/>
  <path class="cls-1" d="M150.61,262.53c-1.97,7.82-4,15.24-5.63,22.75-.57,2.63-1.73,3.37-4.35,3.55-14.31.98-27.32,5.22-38.44,14.29-7.6,6.2-13.3,13.58-16.89,22.56-.79,1.97-2.67,3.88-4.57,5.04-5.55,3.37-6.27,9.66-1.65,14.12,1.49,1.44,2.22,3.76,2.89,5.81,2.08,6.32,3.29,12.98,6.04,19.01,8.91,19.56,25.67,28.21,47.06,29.69,24.45,1.69,42.6-8.15,55.07-28.19.64-1.03,1.92-2.49,2.83-2.45,9.37.45,18.72,1.16,28.21,1.81-11.32,41.05-54.51,64.43-98.33,57.44-47.5-7.57-78.48-52.23-69.71-98.97,7.26-38.74,48.62-72.08,97.47-66.45Z"/>
  <path class="cls-1" d="M406.69,186.3c5.45-1.45,10.12-2.7,15.43-4.12-2.37-2.12-4.28-3.83-5.41-4.84-.43-2.31-.16-4.29-1.05-5.08-5.63-5.01-11.45-9.84-17.39-14.52-.97-.76-2.87-.65-4.32-.59-5.33.22-10.64.73-15.97.78-.93,0-2.56-1.59-2.71-2.6-1.26-8.69-.69-9.29,8.53-8.84,3.96.19,7.91.78,12.25,1.23,1.15-4.45,1.42-9.29-1.81-14.01-6.05-8.83-11.9-17.79-17.88-26.77-2.8,3.4-5.06,6.6-7.83,9.31-1.26,1.23-3.54,1.51-5.35,2.22-.7-1.92-2.1-3.9-1.96-5.76.43-5.41,1.48-10.78,2.29-16.17.32-2.09.47-4.24,1.05-6.26.41-1.44,1.54-3.91,2.13-3.85,1.85.18,4.31.88,5.24,2.21,1.8,2.58,2.67,5.75,4.03,8.63,1.48,3.14,2.8,6.39,4.68,9.3,4.56,7.07,9.02,14.25,14.23,20.87,4.7,5.97,6.1,12.44,5.58,19.53-.22,2.94.81,4.32,3.81,5.05,8.79,2.15,15.16,7.82,20.96,14.1,2.36,2.55,5.05,3.79,8.54,4,9.25.56,18.49,1.26,27.77,1.61-2.72-.47-5.45-.94-8.47-1.46-.06-1.25-.12-2.55-.19-3.98-.32-.15-.69-.42-1.11-.52-4.6-1.01-9.23-1.87-13.77-3.05-1.15-.3-2.04-1.56-3.05-2.37,1-.78,1.87-1.83,3.01-2.3,6.37-2.59,12.87-4.89,19.19-7.57,6.01-2.55,5.94-2.7,8.31,3.78,2.61-.73,5.24-1.97,7.92-2.09,4.77-.22,9.72-.36,14.3.68,2.01.46,4.62,3.89,4.66,6.02.23,13.29-.15,26.58-.41,39.87-.08,4.4-2.87,6.61-7.16,6.82-4.05.2-8.19.28-12.19-.26-9.94-1.34-12.84-9.04-15.76-16.99,2.33-1.17,4.63-2.33,6.94-3.48-.14-.34-.27-.68-.41-1.02-3.53,1.2-7.07,2.41-11.05,3.76,3.15,6.68,5.89,12.59,8.7,18.47,7.81,16.35,15.53,32.74,23.51,49,3.96,8.07-.45,11.12-6.66,12.43-3.2.68-5.47-.31-7.11-3.58-8.52-17.03-17.33-33.92-26.04-50.87-.75-1.45-1.52-2.89-2.87-5.46-13.05,27.55-25.64,54.14-38.28,80.82q-6.91-6.01-3.29-13.25c6.05-12.11,12.13-24.21,18.13-36.34,5.18-10.48,6.28-21.39,3.38-32.65-1.71-6.66-5.08-12.3-10.99-16.39-1.25-.86-2.32-1.96-4.09-3.47ZM473.75,178.67c-.49-4.21-2.35-6-5.11-5.61-1.37.2-3,2.45-3.44,4.05-.59,2.15.37,4.53,3.33,4.12,1.83-.26,3.49-1.67,5.23-2.56Z"/>
  <path class="cls-2" d="M410.04,196.83c11.05,8.53,8.24,25.85,4.89,35.55-2.35,6.79-6.64,7.07-12.63,7.06-39.56-.07-79.13.11-118.69.2-7.91.02-10.59-4.83-7.21-12.06,3.66-7.83,9.16-13.34,17.71-16.4,19.86-7.11,39.31-15.44,59.47-21.64,13.91-4.27,28.76-5.18,43.38-1.64,1.32.32,3.13.61,3.75,1.52,4.01,5.9,8.15,11.76,8.11,19.32-.02,4.99.03,9.88-2.48,14.49-1.67,3.06-3.64,4.73-7.65,4.68-19.86-.21-39.72-.09-59.58-.09-1.05,0-2.09,0-3.14,0,0,.27,0,.54,0,.8h65.9c.08.42.16.85.24,1.27-1.44.36-2.87,1.03-4.32,1.04-12.6.08-25.21.05-37.83-.5h9.45c0-.34-.02-.69-.02-1.03-28.7.75-57.39,1.5-86.09,2.24-.03.52-.06,1.04-.09,1.56,1.6.29,3.2.79,4.81.84,38.27.98,76.54,1.86,114.8,2.92,4.01.11,5.91-1.12,7.92-4.54,7.1-12.12,6.87-23.81-.7-35.61Z"/>
  <path class="cls-1" d="M82.19,619.75v-105.1c1.92-.11,3.6-.32,5.27-.3,10.09.1,20.17.22,30.26.39,12.75.21,23.06,10.05,23.14,22.33.12,19.22.1,38.45.02,57.67-.06,13.55-7.92,23.36-21.86,24.76-11.97,1.2-24.17.25-36.82.25ZM103.92,566.97c0,9.97-.05,19.95.06,29.92.02,1.34.43,3.35,1.38,3.9,4.62,2.68,11.87-1.35,11.99-6.48.2-9.21.46-18.43.46-27.65,0-9.52-.22-19.04-.5-28.55-.11-3.94-3.57-5.54-10.19-5.36-4.25.11-3.14,3.05-3.17,5.22-.1,9.67-.04,19.34-.04,29.01Z"/>
  <path class="cls-1" d="M203.4,597.98c.12,6.43-1.81,11.39-5.9,15.51-11.41,11.48-32.57,11.26-42.91-1.04-2.93-3.48-4.69-8.75-4.91-13.28-.65-13.28-.33-26.6-.23-39.91.09-11.42,9.24-21.65,21.07-23.37,9.25-1.35,17.87.39,25.31,6.18,4.77,3.71,7.48,8.39,7.54,14.4.07,7.11-.04,14.23.49,21.31.35,4.77-1.63,5.97-6.17,5.9-7.39-.12-14.8.35-22.19.32-3.07-.01-4.29,1-4.07,3.94.28,3.77.45,7.55.45,11.33,0,2.45.77,4.55,3.43,4.39,2.19-.13,5.42-.91,6.22-2.39,1.54-2.83,3.38-3.41,6.28-3.32,5.01.15,10.02.04,15.59.04ZM182.76,562.21c-.2-.06-.4-.12-.6-.18-.15-1.8-.24-3.61-.47-5.4-.45-3.5-3.46-4.55-6.14-4.19-1.67.22-3.72,2.52-4.32,4.28-.85,2.49-.6,5.35-.62,8.06,0,.96.51,2.71.92,2.75,3.09.27,6.34.7,9.27,0,1.05-.25,1.34-3.46,1.97-5.31Z"/>
  <path class="cls-1" d="M309.35,598.34c-.2,6.17-2.25,11.27-6.43,15.47-13.55,13.6-39.2,8.91-46.31-8.49-.78-1.91-1.15-4.1-1.17-6.16-.12-12.71-.21-25.41-.07-38.12.18-16.26,12.86-27.2,29.69-25.03,5.42.7,10.77,3.12,15.73,5.56,5.07,2.5,7.6,7.28,7.86,12.71.39,8.16.27,16.33.48,24.5.07,2.57-.76,3.9-3.65,4.02-8.16.35-16.32,1.06-24.48,1.22-3.53.07-4.89,1.13-4.54,4.48.37,3.46.17,7.02.97,10.36.45,1.88,2.21,4.56,3.77,4.84,1.97.35,4.39-1.29,6.54-2.24,2.08-.93,3.99-2.79,6.1-2.98,4.97-.45,10.01-.14,15.53-.14ZM287.18,561.45c-.14-1.66.14-3.49-.52-4.92-.71-1.52-2.11-3.42-3.57-3.76-1.51-.35-4.74.7-4.96,1.62-.93,4.02-1.08,8.21-1.35,12.35-.02.36,1.06.99,1.72,1.16,6.68,1.73,9.01-.02,8.68-6.45Z"/>
  <path class="cls-1" d="M569.71,599.49c-1.83,4.19-2.83,8.98-5.62,12.46-11.33,14.12-36.3,12.69-45.86-2.52-1.77-2.81-2.53-6.57-2.6-9.92-.29-13.62-.21-27.24-.12-40.87.07-10.09,8.76-20.18,19.23-22.62,12.51-2.92,27.91,3.52,32.66,13.72.56,1.2.96,2.58.99,3.89.22,8.47.2,16.95.53,25.42.13,3.41-1.2,4.5-4.61,4.5-7.88.01-15.76.4-23.64.42-2.99,0-4.37.89-4.12,3.91.31,3.77,0,7.63.75,11.3.35,1.7,2.33,3.71,4.05,4.33,1.46.53,4.65-.21,5.28-1.32,2.17-3.86,5.6-3.96,9.27-3.98,4.07-.03,8.13,0,12.2,0,.53.43,1.07.86,1.6,1.29ZM547.28,561.13c-.11-1.35-.39-2.72-.31-4.06.23-3.47-2.22-4.98-4.91-4.56-1.84.29-4.04,2.44-4.78,4.25-.93,2.28-.46,5.06-.71,7.61-.26,2.74.91,3.65,3.78,3.69,7.18.1,7.32.08,6.92-6.93Z"/>
  <path class="cls-1" d="M479.28,584.29c2.98-9.95,5.96-19.89,8.91-29.84.16-.55.1-1.2.02-1.79-1.15-8.39,3.03-13.14,11.94-13.54q12.88-.59,12.86,11.9c0,2.76.84,5.74-3.53,6.75-1.21.28-2.14,2.78-2.69,4.42-6.01,17.97-12.01,35.94-17.76,53.99-1.07,3.35-2.63,4.4-6.23,4.36-13.04-.13-13.03,0-16.78-11.91-4.87-15.46-9.69-30.94-14.72-46.36-.64-1.95-2.44-3.55-3.7-5.32-.49-.69-1.35-1.39-1.37-2.1-.13-4.53-.2-9.08.05-13.6.05-.83,1.65-2.22,2.57-2.24,4.56-.11,9.15-.08,13.68.35,4.43.42,8.87,7.39,7.85,11.55-.35,1.43-.66,3.06-.3,4.43,2.51,9.65,5.2,19.25,7.83,28.87.47.03.93.05,1.4.08Z"/>
  <path class="cls-2" d="M487.51,251.78c22.6-7.18,44.43-7.07,66.31-1.59,23.76,5.96,42.3,19.23,56.16,39.14-2-.54-3.98-1.11-5.99-1.61-8.06-1.99-16.15-3.85-24.16-6-2.24-.6-4.2-2.12-6.33-3.13-.81-.39-1.72-.75-2.6-.79-11.62-.47-23.25-1.44-34.85-1.12-10.8.29-21.56,2.05-32.35,2.96-1.49.13-4.03-.53-4.5-1.52-4.01-8.48-7.66-17.12-11.69-26.33Z"/>
  <path class="cls-1" d="M349.03,563.75c-.3-2.72.08-5.29-.96-7.12-1.01-1.78-3.47-3.85-5.28-3.84-1.74.01-4.93,2.51-4.96,3.95-.25,13.76.05,27.53.15,41.29.03,3.56,1.48,5.72,5.49,5.7,4.03-.03,4.8-2.76,5.25-5.77.11-.73.26-1.46.44-2.44h20.68c.02,8.94-3.09,16.08-10.82,20.97-15.18,9.61-34.19,5.24-41.67-9.56-.8-1.57-1.34-3.44-1.35-5.18-.1-15.29-.16-30.58-.02-45.87.07-8.19,10.5-18.66,19.82-19.22,6.19-.37,12.63.09,18.68,1.38,9.59,2.05,15.68,11.11,14.64,20.54-.12,1.11-1.43,2.84-2.41,3-5.71.92-11.49,1.45-17.68,2.16Z"/>
  <path class="cls-1" d="M294.16,345.94c-.83,3.09-3.39,3.01-6.24,1.78-2.56-1.11-5.24-2.07-7.54-3.58-4.78-3.13-7.27-7.3-5.76-13.16,1.62-6.28,5.99-9.83,12.17-11.33,1.17-.28,3.52,1.12,4.22,2.33,3.03,5.27,5.64,10.76,8.54,16.43-1.21.95-2.61,2.06-4.28,3.38,6.64-.95,7.65-2.45,5.27-7.43-1.71-3.57-3.67-7.03-5.17-10.67-1.79-4.32-4.24-7.46-9.49-8.34-1.27-.21-2.86-3.05-2.84-4.67.01-1.37,2.46-4.06,3.26-3.87,5.79,1.33,9.56-2.18,13.8-4.62.81-.47,1.61-1.25,2.45-1.29,1.18-.06,2.4.43,3.6.68-.5,1.1-.69,2.64-1.56,3.21-3.31,2.14-6.84,3.97-10.06,6.43,4.35,1.25,8.39,2.71,12.16-1.02.95-.94,3.21-.93,4.85-.89,11.03.27,22.05.66,33.08,1.03,7.79.26,17.37,6.83,19.78,13.53,3.75,10.43,1.62,20.53-5.84,26.22-5.29,4.04-11.34,6.52-18.23,6.56-9.44.06-18.87.01-28.34-.7,6.84-.38,13.68-.74,20.52-1.14,4.08-.23,8.19-.24,12.22-.82,11.03-1.59,18.83-8.89,19.7-19.47.58-7.07-3.31-12.92-9.44-16.72-8.65-5.36-18.42-4.83-28.25-3.39,2.46.42,4.91.88,7.38,1.24,2.64.39,5.29.71,7.94,1.01,7.82.9,12.78,4.95,13.54,11.07,1.3,10.56-2.02,14.2-10.13,18.49-9.51,5.03-19.54,4.7-29.5,5.98-1.95.25-3.97.04-5.96.04-.23-.42-.46-.84-.68-1.26,1.49-1.3,2.85-2.8,4.51-3.87,10.77-6.93,11.28-18.15,1.09-25.94-6.21-4.75-13.22-7.05-21.05-6.83-.25.54-.5,1.07-.75,1.61,1.78.78,3.49,2.01,5.35,2.27,6.46.91,11.89,3.65,16.78,7.67,4.61,3.79,3.32,12.16-1.3,16.81-6.65,6.68-12.84,2.8-19.81,3.25Z"/>
  <path class="cls-1" d="M251.5,601.91c0,4.48.13,9.14-.1,13.79-.05,1.11-1.04,2.72-2.04,3.16-6.64,2.93-13.63,4.65-20.32.63-6.39-3.84-10.61-9.21-10.6-17.04.02-14.07-.34-28.13-.27-42.2.02-3.41-1.03-4.41-4.55-4.37-8.39.1-8.13-.05-7.75-8.18.2-4.35,1.91-7.17,5.47-9.79,8.73-6.43,17.13-13.26,26.65-20.7.41,7.62.78,14.41,1.18,21.73h13.4v17.02c-3.48,0-6.87.1-10.26-.03-2.56-.1-3.72.7-3.67,3.33.25,13.31.3,26.62.7,39.93.04,1.24,1.91,3.32,3.12,3.46,2.66.31,5.45-.37,9.04-.74Z"/>
  <path class="cls-1" d="M416.23,600.94c0,5.41.16,10.06-.12,14.68-.07,1.15-1.31,2.71-2.44,3.27-13.56,6.69-31.39-.96-30.97-17.83.32-13,.16-26.01.2-39.02.02-6.23,0-6.22-6.67-6.28-1.39-.01-2.78-.11-4.43-.18-.9-7.27-1.64-13.73,6.05-18.79,8.52-5.6,16.12-12.48,25.23-19.68,0,6.49.29,11.82-.09,17.1-.3,4.16,1.31,5.38,5.37,4.96,2.76-.28,5.57-.05,8.63-.05v16.66c-2.09,0-3.93-.02-5.77,0-9.38.14-8.2-1.29-8.13,8.03.09,11.34.54,22.67.91,34.01.17,5.18,1.97,6.39,7.16,5,1.34-.36,2.61-.95,5.07-1.86Z"/>
  <path class="cls-2" d="M427.01,394.52c.46-.28,1.37-.67,1.33-.82-4.93-18.18-8.08-36.69-7.98-55.44.16-27.92,14.32-54.83,43.95-74.71,3.92,7.05,7.91,14.02,11.68,21.1,1.63,3.06,1.09,5.31-2.63,7.21-11.42,5.84-20.7,14.15-28.56,24.02-5.84,7.33-9.29,15.23-8.96,24.66.24,6.79-.68,13.61-.42,20.39.37,9.44,1.32,18.85,2.09,28.27.36,4.38-5.1,2.03-6.18,5.01-.26.72-2.5.79-3.83,1.15-.16-.28-.32-.56-.49-.85Z"/>
  <path class="cls-1" d="M263.08,359.63c-.73,3.42-1.38,6.47-2.14,9.98-9.98-1.14-19.81-2.18-29.61-3.4-37.46-4.67-74.91-9.41-112.37-14.12-3.43-.43-6.88-.8-10.3-1.31-7.67-1.16-10.16-4.82-8.28-12.02,1.33-5.09,3.57-6.65,8.93-5.74,50.35,8.54,100.7,17.13,151.05,25.73.75.13,1.47.47,2.71.89Z"/>
  <path class="cls-2" d="M23.78,330.03c6.5-14.28,12.44-28.25,19.19-41.85,5.63-11.34,14.21-20.66,24.47-28.48,2.96-2.26,6.07-4.37,8.82-6.84,4.6-4.13,8.7-5.96,15.7-3.46,6.81,2.43,14.86,1.69,22.38,2.22,11.61.82,23.23,1.52,34.85,2.3.51.03,1,.44,1.49,1.62-1.73.18-3.46.54-5.19.52-39.96-.39-68.57,18.21-89.98,49.22-4.5,6.53-9.76,12.62-15.1,18.56-4.25,4.73-10.21,6.16-16.65,6.19Z"/>
  <path class="cls-1" d="M225.45,255.95c5.35.27,10.7.44,16.03.81,10.97.76,16.75,8.1,13.52,18.13-4.45,13.84-9.67,27.46-14.42,41.22-1.09,3.15-3.18,2.85-5.56,2.05-.69-.23-1.32-.85-1.78-1.44-10.54-13.18-21.34-26.17-31.43-39.65-4.87-6.51-4.05-13.77,1.2-18.19,2.12-1.79,5.41-2.82,8.29-3.14,4.66-.51,9.43-.14,14.15-.14,0,.11,0,.22,0,.33Z"/>
  <path class="cls-1" d="M297.01,499.33h-15.23c.21-3.78-2.13-7.6,2.21-10.43.51-.33.38-1.72.38-2.61.03-6.19.02-12.38.02-18.57-.44-.07-.89-.14-1.33-.21-1.62,4.26-3.47,8.45-4.82,12.78-1.67,5.36-6.36,3.23-9.85,3.95-3.35.69-3.6-2.05-4.36-4.16-1.54-4.28-3.12-8.53-4.69-12.8-.54.02-1.08.04-1.62.07,0,7.05-.63,14.19.38,21.1.3,2.07,2.84,4.41,2.85,7.33,0,2.24-.72,3.47-3.23,3.34-1.1-.06-2.21,0-3.31.01-10.34.02-9.78.06-8.9-9.68.92-10.19.67-20.47.8-30.71.04-3-.38-6-.66-10.03,5.99.32,11.56.46,17.08,1.06,1.03.11,2.21,1.96,2.69,3.23,2.01,5.32,3.79,10.73,6.12,17.46,2.55-6.75,4.73-12.16,6.63-17.66.85-2.47,2.05-3.77,4.96-3.62,2.82.15,5.68-.35,8.5-.2,1.85.1,5.15.67,5.24,1.34.35,2.68-.15,5.5-.64,8.22-.26,1.46-1.61,2.81-1.65,4.23-.19,6.35-.23,12.72-.02,19.07.1,3.08-1.02,6.24,2.22,9.15,1.4,1.25.23,5.14.23,8.33Z"/>
  <path class="cls-1" d="M421.95,539.29h19.79c.11,1.5.31,2.95.31,4.4.02,23.73-.06,47.46.09,71.18.02,3.71-1.05,5.16-5,4.99-4.23-.18-8.51.38-12.72.1-1.2-.08-3.25-1.99-3.26-3.07-.12-24.78-.02-49.56.08-74.34,0-1.01.43-2.03.7-3.27Z"/>
  <path class="cls-1" d="M394.19,293.41c-3.08-2.97-5.75-6.57-9.35-8.72-3.92-2.34-4.68-4.81-3.05-9,7.81,1.87,14.2,5.84,18.16,12.51,9.73,16.36,11.31,33.07,1,49.9-2.95,4.82-5.53,9.9-8.96,14.39-9.83,12.89-23.1,20.66-39.83,21.27-16.35.6-32.75.03-49.13-.03-1.1,0-2.35.21-3.27-.21-1.61-.73-3.02-1.88-4.52-2.85,1.53-.72,3.04-2.04,4.59-2.08,15.27-.43,30.55-.47,45.82-.99,15.64-.53,29.18-5.57,38.89-18.11,7.75-10.01,15.29-20.09,15.85-33.24.34-8.05-1.45-15.6-6.1-22.42,0,0-.1-.41-.1-.41Z"/>
  <path class="cls-1" d="M328.15,274.17l45.85,3.29c-.03.49-.06.98-.1,1.46-16.38-.85-32.76-1.7-49.14-2.55-.03.49-.06.99-.09,1.48,16.58,1.41,33.15,2.83,49.73,4.24-.03.28-.06.56-.09.85-16.76-.72-33.52-1.43-50.28-2.15-.05.55-.1,1.1-.14,1.65,14.45,1.13,28.89,2.26,43.34,3.39-.04.52-.08,1.05-.13,1.57-15.95-1.12-31.91-2.23-46.58-3.26-.9-5.54-1.69-10.36-2.47-15.18-.07-.44-.29-.96-.12-1.31,1.77-3.85,3.25-7.9,5.58-11.41,1.04-1.56,3.74-2.44,5.86-2.94,5.52-1.32,11.62.03,16.7-3.65.94-.68,3.69-.54,4.41.23,3.99,4.3,9.41,3.47,14.37,4.23,6,.92,9.53,4.63,10.4,12-17.47-.71-34.81-1.42-52.14-2.12l-.04,1.53c16.82,1.04,33.63,2.08,50.45,3.11-.02.37-.03.74-.05,1.11l-47.33-1.36c-.01.32-.03.65-.04.97,16.51,1.28,33.02,2.56,49.53,3.83-.04.57-.09,1.14-.13,1.72-15.71-.73-31.42-1.45-47.14-2.18-.08.48-.16.97-.24,1.45Z"/>
  <path class="cls-1" d="M394.19,293.41s.1.42.1.41c3.71,7.94.36,14.83-3.24,21.84-3.34,6.5-6.15,13.24-9.28,19.84-8.58,18.13-23.21,28.31-43.91,29.64-10.82.69-21.72.31-32.59.32-1.44,0-2.89-.56-4.42-.87.56-3.55,2.5-4.3,5.38-4.34,10.08-.15,20.15-.54,30.23-.73,20.4-.4,34.96-12.29,38.83-32.08-1.25-.62-2.67-1.17-3.92-1.96-3.86-2.43-3.34-5.74-1.9-9.23,1.47-3.55,3.97-3.71,7.2-2.24,3.9,1.78,6.51,1.47,7.91-3.39,1.41-4.91,3.9-9.55,6.2-14.18.62-1.25,2.25-2.03,3.41-3.02Z"/>
  <path class="cls-1" d="M334.94,479.79c0,2.27-.1,4.54.02,6.8.29,5.53-1.53,9.93-7.33,11.82-6.79,2.21-13.88,3.43-19.28-2.42-2.42-2.62-4.02-6.48-4.61-10-.77-4.56-.35-9.35-.12-14.02.36-7.15,6.18-12.45,13.58-12.29,3.27.07,6.58.61,9.76,1.38,5.66,1.36,7.7,4,7.9,9.66.1,3.02.02,6.04.02,9.07h.06ZM324.99,479.64c-.15-2.42-.28-4.84-.45-7.25-.25-3.6-3.12-4.37-5.98-4.58-3.22-.24-3.76,2.14-3.77,4.6-.02,4.84.01,9.68.04,14.51.02,2.54.8,4.61,3.94,4.54,3.08-.06,5.63-.96,5.79-4.56.11-2.42.28-4.84.42-7.26Z"/>
  <path class="cls-1" d="M397.39,479.78c0,1.81-.05,3.63.01,5.44.2,5.55-1.36,10.54-6.97,12.77-6.49,2.59-13.39,2.51-19.49-1.16-1.96-1.18-3.69-4.04-3.94-6.29-.74-6.73-1.04-13.54-.83-20.31.17-5.4,6.64-10.57,12.28-10.42,3.13.09,6.3.36,9.36.97,5.69,1.15,9.2,5.29,9.47,10.84.13,2.71.02,5.44.02,8.15.03,0,.06,0,.09,0ZM386.51,479.62c-.15-2.55-.43-5.11-.41-7.66.03-3.41-2.67-4.23-5.01-3.96-1.43.16-3.55,2.4-3.68,3.84-.46,5.07-.12,10.21-.24,15.32-.07,3.18,1.76,4.37,4.64,4.32,2.67-.05,4.37-1.24,4.31-4.19-.05-2.55.25-5.11.39-7.67Z"/>
  <path class="cls-2" d="M560.52,479.11c-19.19,0-38.39-.21-57.57.06-16.68.24-33.34,1.11-50.02,1.55-3.6.1-7.28-.12-10.79-.82-1.46-.29-2.58-2.21-3.85-3.39,1.41-1.1,2.77-3.09,4.23-3.16,6.91-.3,13.86-.19,20.78,0,18.25.5,36.51,1.04,54.76,1.72,13.19.49,26.37,1.2,39.55,1.85,1.01.05,2,.45,3,.68-.03.5-.06,1-.09,1.5Z"/>
  <path class="cls-1" d="M355.97,490.76c2.21-.17,3.56-.27,4.88-.37,1.61,5.69.43,8.65-3.71,9.51-5.7,1.18-11.45-2.34-11.79-7.58-.4-6.17-.38-12.37-.53-18.56-.03-1.47,0-2.94,0-4.58-1.97-.31-3.48-.54-5.15-.8-.96-4.3-.66-7.89,3.56-10.7,3.67-2.45,6.92-5.47,11.13-8.85.44,4.13.76,7.22,1.14,10.73,2.05.2,4.17.4,6.69.65v8.27c-6.46-1.03-6.56,2.77-6.27,7.3.3,4.78.07,9.6.07,15Z"/>
  <path class="cls-2" d="M87.47,476.49h48.38c.01-.24.03-.48.04-.71h-10.72c0-.14,0-.29.01-.43h32.49c.02-.19.04-.37.05-.56-2.33-.1-4.66-.2-7.77-.34h26.66l.08-.32c-1.02-.2-2.03-.4-3.07-.61.13-.05.29-.16.46-.16,5.98.14,11.96.44,17.94.38,4.67-.05,9.32-.63,13.99-.8,2.46-.09,4.74.16,4.75,3.54,0,3.7-2.46,3.57-5.11,3.56-22.04-.02-44.08-.01-66.13-.63h8.59c0-.44.02-.89.02-1.33h-60.69c0-.53,0-1.06,0-1.59Z"/>
  <path class="cls-1" d="M84.48,239.91c-.66-7.44-1.46-14.87-1.93-22.31-.32-4.98-.41-9.99-.12-14.97.1-1.76,1.21-4.4,2.59-4.94,2.02-.79,4.76-.36,7.05.14,1.17.25,2.38,1.6,3,2.74,8.35,15.16,16.6,30.37,25.5,46.7-11.15-1.76-21.31.37-30.67-3.53-.12-.63-.25-1.25-.37-1.88,6.28-2.32,12.57-4.64,19.53-7.21-1.78-3.89-3.51-8.21-5.69-12.31-3.09-5.78-6.5-11.39-9.81-17.06-.54-.92-1.04-2.03-1.88-2.57-1.47-.95-3.2-1.53-4.83-2.26-.49,1.51-1.43,3.02-1.39,4.51.14,5.44.67,10.87.94,16.31.25,4.99.39,9.98.47,14.97.02,1.24-.36,2.48-.56,3.72-.61-.02-1.22-.03-1.83-.05Z"/>
  <path class="cls-1" d="M59.28,247.29c.43,14.4-14.4,29.58-27.25,28.02.76-2.73,1.47-5.41,2.24-8.08,1.71-5.94,3.34-11.92,5.28-17.79.41-1.23,2.02-2.97,3.08-2.97,5.58,0,11.16.5,16.64.82Z"/>
  <path class="cls-1" d="M111.85,209.98c3.56,0,7.13-.04,10.69,0,21.01.27,41.7,2.98,62.41,6.39,8.93,1.47,18.47-.49,27.73-.91,16.22-.74,32.43-1.52,48.65-2.2,1.43-.06,2.89.43,4.26,1.59-10.16.82-20.33,1.67-30.49,2.45-12.88,1-25.75,2.54-38.65,2.73-8.71.13-17.44-1.74-26.18-2.6-18.17-1.79-36.34-3.5-54.51-5.26-1.35-.13-2.69-.38-4.04-.57.05-.54.09-1.08.14-1.63Z"/>
  <path class="cls-1" d="M161.66,363.96c-16.1,15.23-42.72,11.44-48.84-6.63,16.21,2.2,32.18,4.37,48.84,6.63Z"/>
  <path class="cls-1" d="M234.51,372.05c10.59.37,20.75.62,30.9,1.12,14.87.73,23.71-6.78,29.26-19.15,2.66-5.93,4.32-6.35,10.9-3.04-4.13,9.93-10.94,17.5-21.24,21.79-14.64,6.1-29.76,8.1-45.6,4.98-4.28-.84-5.26-2.4-4.22-5.7Z"/>
  <path class="cls-1" d="M317.4,276.62c.38,3.64-.31,7.47-4.49,8.24-3.25.6-7.61.59-10.08-1.07-3.59-2.41-3.95-6.87-2.48-11.13,1.51-4.35,3.07-8.72,4.12-13.18.91-3.84,3.93-2.88,6.33-2.99,2.16-.1,4.96-.58,5.2,2.94.39,5.74.91,11.46,1.38,17.19Z"/>
  <path class="cls-1" d="M441.81,514.14v18.42c-6.14,0-12.06.1-17.96-.11-.89-.03-2.41-1.51-2.46-2.38-.25-4.51-.24-9.06.02-13.57.05-.83,1.66-2.22,2.59-2.26,5.78-.21,11.58-.11,17.81-.11Z"/>
  <path class="cls-1" d="M347.46,185c.28-3.56.25-6.58.89-9.46.25-1.12,1.85-2.47,3.09-2.78,5.75-1.43,11.54-2.86,17.41-3.63,3.34-.44,6.92.1,8.6,3.99,2.58,6.02,1.61,7.5-4.94,8.28-8.07.96-16.08,2.3-25.04,3.61Z"/>
  <path class="cls-1" d="M316.63,286.14c.59,7.97-2.87,12-10.82,11.66-2.54-.11-5.94-2.34-7.17-4.52-1.34-2.38-.62-5.83-.82-9.21-4.56-.56-4.61-3.99-4.45-7.57.08-1.81-.02-3.62.02-5.43.15-6.12.35-6.25,7.25-4.66-.6,2.58-1.1,5.2-1.82,7.76-2.8,9.83,6.75,16.75,15.18,12.76.69-.32,1.47-.45,2.63-.78Z"/>
  <path class="cls-1" d="M26.02,279.29c-7.53-.22-8.08-.9-6.3-7.11,2.66-9.29,5.34-18.57,8.12-28.23,2.29.13,4.41.26,7.42.43-1.61,6.17-3.1,11.93-4.62,17.67-1.5,5.68-3.04,11.36-4.62,17.24Z"/>
  <path class="cls-1" d="M476.56,275.83c5.15-2.5,9.44-4.58,14.09-6.84,3.27,4.06,4.85,9.22,4.64,14.59-.06,1.63-2.77,4.05-4.68,4.5-2.12.5-5.59-.09-6.91-1.53-2.94-3.2-4.9-7.23-7.14-10.73Z"/>
  <path class="cls-1" d="M153.55,309.38c-1.85,7.19-3.27,13.55-5.29,19.74-.36,1.11-3.17,1.87-4.92,2-.71.05-2.48-2.17-2.27-3.04,1.54-6.46,3.29-12.89,5.4-19.19.38-1.13,2.8-2.3,4.22-2.22,1.12.06,2.14,1.98,2.86,2.71Z"/>
  <path class="cls-1" d="M290.13,281.02c-4.15-1.23-7.52-1.92-10.61-3.21-4.76-1.99-1.59-6.01-1.84-9.07-.06-.69,2.47-2.11,3.93-2.28,3.05-.36,6.18-.11,10-.11-.5,4.95-.93,9.33-1.47,14.68Z"/>
  <path class="cls-1" d="M117,326.02c5.92-5.48,11.25-10.45,19.81-9.38-.18,11.02-5.84,13.78-19.81,9.38Z"/>
  <path class="cls-2" d="M196.38,254.48c-1.55,5.33-2.99,10.23-4.87,16.69-2.53-6.03-4.64-11.04-7.01-16.69h11.88Z"/>
  <path class="cls-1" d="M83.72,333.79c3.79.24,7.15.45,10.92.68-.32,3.29-.58,6.11-.91,9.49-3.65-.18-7.15-.35-10.98-.54.34-3.35.64-6.27.98-9.63Z"/>
  <path class="cls-1" d="M285.73,362.33c-3.41,4.97-7.54,7.26-13.01,7.02-1.84-.08-4.62.61-4.13-2.67.39-2.59.4-5.89,4.47-5.69,4.03.2,8.04.83,12.67,1.34Z"/>
  <path class="cls-2" d="M230.3,477.27c-1.79,1.18-3.86,3.56-5.29,3.24-1.99-.44-3.5-2.9-5.22-4.5,1.56-1.53,2.9-3.98,4.74-4.39,3.01-.67,4.74,1.55,5.77,5.64Z"/>
  <path class="cls-2" d="M418.36,476.29c2.57-2.31,4.3-4.81,5.3-4.56,2.01.49,4.87,2.32,5.07,3.88.2,1.53-2.2,4.41-3.93,4.81-1.41.33-3.52-2.13-6.44-4.13Z"/>
  <path class="cls-1" d="M326.95,287.29l37.81,2.71-.11,1.47c-12.61-.78-25.22-1.57-37.84-2.35.04-.61.09-1.22.13-1.83Z"/>
  <path class="cls-1" d="M330.91,292.07c9.73.49,19.45.99,29.18,1.48-.03.58-.07,1.15-.1,1.73-9.72-.57-19.44-1.15-29.16-1.72.03-.5.06-.99.09-1.49Z"/>
  <path class="cls-1" d="M360.18,147.75c1.63,1.02,3.82,1.72,4.69,3.16.57.94-.41,3.23-1.38,4.37-.52.61-3.43.47-3.66-.01-.91-1.96-1.19-4.18-1.71-6.31l2.05-1.21Z"/>
  <path class="cls-1" d="M360.89,299.5c-9.46-.66-18.91-1.32-28.37-1.99.03-.38.06-.76.09-1.13,9.47.54,18.93,1.09,28.4,1.63-.04.5-.08.99-.12,1.49Z"/>
  <path class="cls-1" d="M334.78,300.97c6.95.3,13.9.6,20.84.91-.02.4-.04.81-.06,1.21-6.96-.34-13.92-.68-20.87-1.02.03-.37.06-.73.09-1.1Z"/>
  <path class="cls-1" d="M367.77,157.76v-11.85c3.58,3.18,3.42,8.46,0,11.85Z"/>
</svg>